<?xml version="1.0" encoding="utf-8"?>
<!-- Generator: Adobe Illustrator 19.0.0, SVG Export Plug-In . SVG Version: 6.00 Build 0)  -->
<svg xmlns="http://www.w3.org/2000/svg" xmlns:xlink="http://www.w3.org/1999/xlink" version="1.1" id="Layer_1" x="0px" y="0px" viewBox="0 2 98 98" style="enable-background:new 0 2 98 98;" xml:space="preserve" width="512" height="512">
<style type="text/css">
	.st0{fill:url(#SVGID_1_);}
	.st1{fill:url(#SVGID_2_);}
</style>
<g>
	
		<linearGradient id="SVGID_1_" gradientUnits="userSpaceOnUse" x1="47.8" y1="93.3333" x2="47.8" y2="10.3327" gradientTransform="matrix(1 0 0 -1 0 104)">
		<stop offset="0" style="stop-color:#00EFD1"/>
		<stop offset="1" style="stop-color:#00ACEA"/>
	</linearGradient>
	<path class="st0" d="M82.9,60.1c-1.7,0-3,1.3-3,3v23.2H15.7V22.1h23.2c1.7,0,3-1.3,3-3s-1.3-3-3-3H12.7c-1.7,0-3,1.3-3,3v70.2   c0,1.7,1.3,3,3,3h70.2c1.7,0,3-1.3,3-3V63.1C85.9,61.4,84.6,60.1,82.9,60.1z"/>
	
		<linearGradient id="SVGID_2_" gradientUnits="userSpaceOnUse" x1="60.1429" y1="93.3333" x2="60.1429" y2="10.3327" gradientTransform="matrix(1 0 0 -1 0 104)">
		<stop offset="0" style="stop-color:#00EFD1"/>
		<stop offset="1" style="stop-color:#00ACEA"/>
	</linearGradient>
	<path class="st1" d="M87.4,25.3L76.7,14.6c-1.2-1.2-3.1-1.2-4.2,0L37.1,50c-0.4,0.4-0.6,0.8-0.8,1.3l-4.2,14.9   c-0.3,1,0,2.2,0.8,2.9c0.6,0.6,1.3,0.9,2.1,0.9c0.3,0,0.5,0,0.8-0.1l14.9-4.2c0.5-0.1,0.9-0.4,1.3-0.8l35.4-35.4   c0.6-0.6,0.9-1.3,0.9-2.1C88.3,26.6,88,25.8,87.4,25.3z M40.7,57.7l3.6,3.6l-5,1.4L40.7,57.7z M50,58.5L43.5,52l31.1-31.1l6.5,6.5   L50,58.5z"/>
</g>
</svg>
